<svg xmlns="http://www.w3.org/2000/svg" xmlns:xlink="http://www.w3.org/1999/xlink" version="1.1" width="256" height="256" viewBox="0 0 256 256" xml:space="preserve">

<defs>
</defs>
<g style="stroke: none; stroke-width: 0; stroke-dasharray: none; stroke-linecap: butt; stroke-linejoin: miter; stroke-miterlimit: 10; fill: none; fill-rule: nonzero; opacity: 1;" transform="translate(1.4065934065934016 1.4065934065934016) scale(2.81 2.81)" >
	<path d="M 83.651 79.918 V 45.802 H 83.38 c 0.893 -0.244 1.741 -0.68 2.456 -1.333 c 1.346 -1.229 2.053 -2.979 1.938 -4.798 s -1.034 -3.466 -2.523 -4.518 L 44.999 6.745 L 4.797 35.208 c -1.471 1.041 -2.387 2.669 -2.514 4.466 c -0.126 1.797 0.552 3.538 1.862 4.775 c 0.771 0.729 1.703 1.195 2.682 1.436 H 6.349 v 34.033 H 0 v 3 h 90 v -3 H 83.651 z M 72.274 79.918 H 61.844 V 54.386 h 10.431 V 79.918 z M 80.651 79.918 h -5.094 V 51.103 H 58.561 v 28.815 H 9.349 V 45.97 c 0.833 -0.153 1.644 -0.473 2.369 -0.986 l 33.284 -23.564 l 33.335 23.527 c 0.706 0.498 1.499 0.803 2.314 0.958 V 79.918 z M 80.067 42.495 l -35.069 -24.75 L 9.984 42.535 c -1.157 0.819 -2.748 0.708 -3.779 -0.267 c -0.654 -0.618 -0.993 -1.486 -0.929 -2.383 s 0.521 -1.709 1.254 -2.229 l 38.471 -27.237 l 38.519 27.185 c 0.744 0.524 1.203 1.346 1.26 2.254 c 0.058 0.908 -0.296 1.781 -0.974 2.401 C 82.776 43.199 81.204 43.298 80.067 42.495 z" style="stroke: none; stroke-width: 1; stroke-dasharray: none; stroke-linecap: butt; stroke-linejoin: miter; stroke-miterlimit: 10; fill: rgb(0,0,0); fill-rule: nonzero; opacity: 1;" transform=" matrix(1 0 0 1 0 0) " stroke-linecap="round" />
	<path d="M 14.841 51.244 v 26.242 H 53.33 V 51.244 H 14.841 z M 50.33 62.865 H 35.586 v -8.621 H 50.33 V 62.865 z M 32.586 54.244 v 8.621 H 17.841 v -8.621 H 32.586 z M 17.841 65.865 h 14.745 v 8.621 H 17.841 V 65.865 z M 35.586 74.486 v -8.621 H 50.33 v 8.621 H 35.586 z" style="stroke: none; stroke-width: 1; stroke-dasharray: none; stroke-linecap: butt; stroke-linejoin: miter; stroke-miterlimit: 10; fill: rgb(0,0,0); fill-rule: nonzero; opacity: 1;" transform=" matrix(1 0 0 1 0 0) " stroke-linecap="round" />
	<path d="M 44.986 28.321 L 24.246 43.005 l 41.512 -0.024 L 44.986 28.321 z M 46.488 33.053 l 9.824 6.934 l -9.824 0.005 V 33.053 z M 43.488 33.058 v 6.936 l -9.805 0.005 L 43.488 33.058 z" style="stroke: none; stroke-width: 1; stroke-dasharray: none; stroke-linecap: butt; stroke-linejoin: miter; stroke-miterlimit: 10; fill: rgb(0,0,0); fill-rule: nonzero; opacity: 1;" transform=" matrix(1 0 0 1 0 0) " stroke-linecap="round" />
</g>
</svg>