<svg xmlns="http://www.w3.org/2000/svg" width="21.682" height="22.405" viewBox="0 0 21.682 22.405">
  <g id="buildings-svgrepo-com" transform="translate(-4.687)">
    <g id="Group_28122" data-name="Group 28122" transform="translate(4.687)">
      <g id="Group_28121" data-name="Group 28121">
        <path id="Path_22962" data-name="Path 22962" d="M25.646,21.682V4.7H24.363L21.472,1.445H19.5V0H5.41V21.682H4.687V22.4H26.369v-.723Zm-4.5-19.514L23.4,4.7H19.5V3.614H18.78V4.7H14.887l2.249-2.53ZM14.805,3.252V2.53h1.042l-.642.723Zm-2.168,18.43H8.662v-5.42h3.975v5.42Zm0-9.757H11.192V11.2h1.445Zm0-2.891H11.192V8.311h1.445Zm0-2.891H11.192V5.42h1.445ZM10.469,4.7V6.866h2.168v.723H10.469V9.757h2.168v.723H10.469v2.168h2.168v1.445H6.855v.723h5.782v.723H6.855v.723H7.939v5.42H6.132V.723H18.78v.723H16.811l-.321.361H14.083V3.975h.48L13.92,4.7H10.469Zm5.782,16.984H14.805V19.514a.723.723,0,1,1,1.445,0Zm3.614,0H18.419V19.514a.723.723,0,0,1,1.445,0Zm3.614,0H22.033V19.514a.723.723,0,0,1,1.445,0Zm1.445,0H24.2V19.514a1.445,1.445,0,1,0-2.891,0v2.168h-.723V19.514a1.445,1.445,0,0,0-2.891,0v2.168h-.723V19.514a1.445,1.445,0,0,0-2.891,0v2.168H13.36V5.42H24.923Z" transform="translate(-4.687)" fill="#194675"/>
        <path id="Path_22963" data-name="Path 22963" d="M129.454,192.188h-2.891v2.168h2.891Zm-.723,1.445h-1.445v-.723h1.445Z" transform="translate(-117.167 -177.372)" fill="#194675"/>
        <path id="Path_22964" data-name="Path 22964" d="M176.329,192.188h-2.891v2.168h2.891Zm-.723,1.445h-1.445v-.723h1.445Z" transform="translate(-160.429 -177.372)" fill="#194675"/>
        <path id="Path_22965" data-name="Path 22965" d="M223.2,192.188h-2.891v2.168H223.2Zm-.723,1.445h-1.445v-.723h1.445Z" transform="translate(-203.69 -177.372)" fill="#194675"/>
        <path id="Path_22966" data-name="Path 22966" d="M129.454,154.688h-2.891v2.168h2.891Zm-.723,1.445h-1.445v-.723h1.445Z" transform="translate(-117.167 -142.763)" fill="#194675"/>
        <path id="Path_22967" data-name="Path 22967" d="M176.329,154.688h-2.891v2.168h2.891Zm-.723,1.445h-1.445v-.723h1.445Z" transform="translate(-160.429 -142.763)" fill="#194675"/>
        <path id="Path_22968" data-name="Path 22968" d="M223.2,154.688h-2.891v2.168H223.2Zm-.723,1.445h-1.445v-.723h1.445Z" transform="translate(-203.69 -142.763)" fill="#194675"/>
        <path id="Path_22969" data-name="Path 22969" d="M129.454,117.188h-2.891v2.168h2.891Zm-.723,1.445h-1.445v-.723h1.445Z" transform="translate(-117.167 -108.154)" fill="#194675"/>
        <path id="Path_22970" data-name="Path 22970" d="M176.329,117.188h-2.891v2.168h2.891Zm-.723,1.445h-1.445v-.723h1.445Z" transform="translate(-160.429 -108.154)" fill="#194675"/>
        <path id="Path_22971" data-name="Path 22971" d="M223.2,117.188h-2.891v2.168H223.2Zm-.723,1.445h-1.445v-.723h1.445Z" transform="translate(-203.69 -108.154)" fill="#194675"/>
        <path id="Path_22972" data-name="Path 22972" d="M129.454,79.688h-2.891v2.168h2.891Zm-.723,1.445h-1.445v-.723h1.445Z" transform="translate(-117.167 -73.545)" fill="#194675"/>
        <path id="Path_22973" data-name="Path 22973" d="M176.329,79.688h-2.891v2.168h2.891Zm-.723,1.445h-1.445v-.723h1.445Z" transform="translate(-160.429 -73.545)" fill="#194675"/>
        <path id="Path_22974" data-name="Path 22974" d="M223.2,79.688h-2.891v2.168H223.2Zm-.723,1.445h-1.445v-.723h1.445Z" transform="translate(-203.69 -73.545)" fill="#194675"/>
        <path id="Path_22975" data-name="Path 22975" d="M32.812,138.106H35.7v-2.168H32.812Zm.723-1.445H34.98v.723H33.535Z" transform="translate(-30.644 -125.458)" fill="#194675"/>
        <path id="Path_22976" data-name="Path 22976" d="M32.812,100.606H35.7V98.438H32.812Zm.723-1.445H34.98v.723H33.535Z" transform="translate(-30.644 -90.849)" fill="#194675"/>
        <path id="Path_22977" data-name="Path 22977" d="M32.812,63.106H35.7V60.938H32.812Zm.723-1.445H34.98v.723H33.535Z" transform="translate(-30.644 -56.24)" fill="#194675"/>
        <path id="Path_22978" data-name="Path 22978" d="M32.812,25.606H35.7V23.438H32.812Zm.723-1.445H34.98v.723H33.535Z" transform="translate(-30.644 -21.631)" fill="#194675"/>
        <path id="Path_22979" data-name="Path 22979" d="M79.687,25.606h2.891V23.438H79.687Zm.723-1.445h1.445v.723H80.41Z" transform="translate(-73.905 -21.631)" fill="#194675"/>
      </g>
    </g>
  </g>
</svg>
