<svg width="32" height="32" viewBox="0 0 32 32" fill="none" xmlns="http://www.w3.org/2000/svg">
<path fill-rule="evenodd" clip-rule="evenodd" d="M15.7222 5.79365C15.8756 5.64023 16.1244 5.64023 16.2778 5.79365L26.8849 16.4008C27.0384 16.5542 27.0384 16.803 26.8849 16.9564C26.7315 17.1098 26.4828 17.1098 26.3294 16.9564L16 6.62703L5.67065 16.9564C5.51723 17.1098 5.26849 17.1098 5.11507 16.9564C4.96164 16.803 4.96164 16.5542 5.11507 16.4008L15.7222 5.79365Z" fill="#194675"/>
<path fill-rule="evenodd" clip-rule="evenodd" d="M7.75003 13.9286C7.967 13.9286 8.14289 14.1045 8.14289 14.3214V22.5714C8.14289 23.0924 8.34984 23.592 8.71822 23.9604C9.08659 24.3288 9.58622 24.5357 10.1072 24.5357H21.8929C22.4139 24.5357 22.9135 24.3288 23.2819 23.9604C23.6502 23.592 23.8572 23.0924 23.8572 22.5714V14.3214C23.8572 14.1045 24.0331 13.9286 24.25 13.9286C24.467 13.9286 24.6429 14.1045 24.6429 14.3214V22.5714C24.6429 23.3008 24.3532 24.0003 23.8374 24.516C23.3217 25.0317 22.6222 25.3214 21.8929 25.3214H10.1072C9.37783 25.3214 8.67836 25.0317 8.16263 24.516C7.64691 24.0003 7.35718 23.3008 7.35718 22.5714V14.3214C7.35718 14.1045 7.53307 13.9286 7.75003 13.9286Z" fill="#194675"/>
</svg>
