<svg width="32" height="32" viewBox="0 0 32 32" fill="none" xmlns="http://www.w3.org/2000/svg">
<path d="M27.1798 18.8361C26.4709 18.1351 25.6539 17.5526 24.7602 17.1109C24.9082 5.17805 7.95964 2.69859 5.92771 15.7093C5.87654 16.0163 5.85509 16.3276 5.86365 16.6387C5.20529 17.3153 4.0434 17.9974 4.0065 18.9803C3.8962 20.2881 5.22608 21.0504 5.2825 21.0818C8.05254 22.4774 11.8445 23.5541 14.5411 24.2124C17.7452 25.0097 21.1184 24.7861 24.1892 23.5727C24.2407 23.5514 24.2874 23.5201 24.3268 23.4806C24.3662 23.4412 24.3974 23.3944 24.4187 23.3429C24.44 23.2914 24.4509 23.2362 24.4509 23.1805C24.4508 23.1247 24.4398 23.0696 24.4185 23.0181C24.3971 22.9666 24.3658 22.9199 24.3264 22.8805C24.2869 22.8411 24.2401 22.8099 24.1886 22.7886C24.1371 22.7673 24.0819 22.7563 24.0262 22.7564C23.9705 22.7564 23.9153 22.7674 23.8638 22.7888C20.96 23.9333 17.7713 24.1429 14.7426 23.3882C12.5699 22.858 8.50389 21.755 5.68125 20.3327C5.36649 20.1838 4.30344 19.203 5.2002 18.3983L6.07872 17.5923C6.55553 18.5239 7.38018 19.1492 8.63878 19.7329C8.7415 19.7789 8.85829 19.7822 8.96346 19.7421C9.06863 19.702 9.15356 19.6218 9.19958 19.5191C9.24559 19.4163 9.24892 19.2995 9.20882 19.1944C9.16873 19.0892 9.0885 19.0043 8.98578 18.9583C8.15658 18.6492 7.43875 18.0992 6.92458 17.379C6.81221 17.1928 6.74024 16.9851 6.71333 16.7694C6.69555 16.4537 6.71376 16.1371 6.76763 15.8255C7.0544 14.1928 7.6542 12.6309 8.53401 11.2259C8.73743 10.9212 8.96648 10.6344 9.21867 10.3686C13.5455 11.9144 14.1148 17.2165 14.1203 17.2708C14.1311 17.3828 14.1859 17.4859 14.2727 17.5575C14.3594 17.6291 14.4711 17.6633 14.5831 17.6526C14.6951 17.6418 14.7983 17.587 14.8699 17.5002C14.9415 17.4134 14.9757 17.3018 14.9649 17.1898C14.942 16.9518 14.3753 11.5928 9.88891 9.71786C10.321 9.34371 10.7977 9.02454 11.3083 8.76765C16.9319 10.5565 17.421 15.8221 17.4584 20.4786C15.1117 20.5649 12.7675 20.2506 10.5265 19.5492C10.4732 19.5305 10.4167 19.5227 10.3603 19.5262C10.304 19.5297 10.2489 19.5443 10.1983 19.5694C10.1477 19.5944 10.1026 19.6293 10.0656 19.672C10.0287 19.7147 10.0006 19.7644 9.98313 19.8181C9.96562 19.8717 9.95901 19.9284 9.96368 19.9846C9.96834 20.0409 9.9842 20.0957 10.0103 20.1458C10.0364 20.1958 10.0723 20.2402 10.1157 20.2762C10.1592 20.3122 10.2094 20.3392 10.2635 20.3556C10.7988 20.5304 11.3779 20.6894 11.9845 20.8281C13.8065 21.2169 15.6688 21.3844 17.5309 21.327C17.6213 21.5177 17.7703 21.6745 17.9561 21.7745C18.142 21.8744 18.3549 21.9124 18.5638 21.8827C20.0474 22.0003 21.5397 21.8256 22.956 21.3686C23.6029 21.2608 23.7586 20.6177 23.6246 20.0535C24.1374 19.4896 24.4967 18.8034 24.6681 18.0606C26.9495 19.2124 28.0087 20.6432 25.3324 22.063C25.2371 22.1204 25.1681 22.213 25.1404 22.3208C25.1127 22.4285 25.1284 22.5429 25.1842 22.6392C25.24 22.7355 25.3315 22.806 25.4388 22.8354C25.5461 22.8649 25.6607 22.8511 25.7579 22.7969C26.1986 22.5438 26.6165 22.2529 27.0067 21.9273C27.2262 21.739 27.4053 21.5082 27.5334 21.249C27.6614 20.9897 27.7358 20.7073 27.7519 20.4185C27.7681 20.1298 27.7258 19.8408 27.6274 19.5689C27.5291 19.297 27.3769 19.0477 27.1798 18.8361ZM18.3203 21.0169C18.3325 18.9215 18.1483 16.8295 17.7702 14.7684C17.4755 13.3451 16.8426 12.0136 15.925 10.8863C15.0074 9.75904 13.8321 8.86912 12.4982 8.2917C13.8652 7.8251 15.328 7.71229 16.7504 7.96379C19.909 9.74374 21.859 12.6716 22.3901 16.436C22.4296 16.7524 22.6964 19.3434 22.8245 20.5333C21.3713 20.9976 19.839 21.1621 18.3203 21.0169ZM23.8812 17.5809C23.847 18.0068 23.7143 18.4189 23.4935 18.7848C23.4088 17.9648 23.3214 17.1451 23.2313 16.3257C22.8984 13.5351 21.6093 10.946 19.5832 8.99842C22.5492 10.657 24.238 14.6335 23.8812 17.5809Z" fill="#194675"/>
</svg>
