<svg width="32" height="32" viewBox="0 0 32 32" fill="none" xmlns="http://www.w3.org/2000/svg">
<path d="M26 6.4H24V5.6C24 5.17565 23.8314 4.76869 23.5314 4.46863C23.2313 4.16857 22.8243 4 22.4 4C21.9757 4 21.5687 4.16857 21.2686 4.46863C20.9686 4.76869 20.8 5.17565 20.8 5.6V6.4H17.6V5.6C17.6 5.17565 17.4314 4.76869 17.1314 4.46863C16.8313 4.16857 16.4243 4 16 4C15.5757 4 15.1687 4.16857 14.8686 4.46863C14.5686 4.76869 14.4 5.17565 14.4 5.6V6.4H11.2V5.6C11.2 5.17565 11.0314 4.76869 10.7314 4.46863C10.4313 4.16857 10.0243 4 9.6 4C9.17565 4 8.76869 4.16857 8.46863 4.46863C8.16857 4.76869 8 5.17565 8 5.6V6.4H6C5.46957 6.4 4.96086 6.61071 4.58579 6.98579C4.21071 7.36086 4 7.86957 4 8.4V24.4C4 24.9304 4.21071 25.4391 4.58579 25.8142C4.96086 26.1893 5.46957 26.4 6 26.4H17.2C17.3061 26.4 17.4078 26.3579 17.4828 26.2828C17.5579 26.2078 17.6 26.1061 17.6 26C17.6 25.8939 17.5579 25.7922 17.4828 25.7172C17.4078 25.6421 17.3061 25.6 17.2 25.6H6C5.68203 25.599 5.37736 25.4723 5.15252 25.2475C4.92768 25.0226 4.80095 24.718 4.8 24.4V12H27.2V18.8C27.2 18.9061 27.2421 19.0078 27.3172 19.0828C27.3922 19.1579 27.4939 19.2 27.6 19.2C27.7061 19.2 27.8078 19.1579 27.8828 19.0828C27.9579 19.0078 28 18.9061 28 18.8V8.4C28 7.86957 27.7893 7.36086 27.4142 6.98579C27.0391 6.61071 26.5304 6.4 26 6.4ZM21.6 5.6C21.6 5.38783 21.6843 5.18434 21.8343 5.03431C21.9843 4.88429 22.1878 4.8 22.4 4.8C22.6122 4.8 22.8157 4.88429 22.9657 5.03431C23.1157 5.18434 23.2 5.38783 23.2 5.6V8C23.2 8.21217 23.1157 8.41566 22.9657 8.56568C22.8157 8.71571 22.6122 8.8 22.4 8.8C22.1878 8.8 21.9843 8.71571 21.8343 8.56568C21.6843 8.41566 21.6 8.21217 21.6 8V5.6ZM15.2 5.6C15.2 5.38783 15.2843 5.18434 15.4343 5.03431C15.5843 4.88429 15.7878 4.8 16 4.8C16.2122 4.8 16.4157 4.88429 16.5657 5.03431C16.7157 5.18434 16.8 5.38783 16.8 5.6V8C16.8 8.21217 16.7157 8.41566 16.5657 8.56568C16.4157 8.71571 16.2122 8.8 16 8.8C15.7878 8.8 15.5843 8.71571 15.4343 8.56568C15.2843 8.41566 15.2 8.21217 15.2 8V5.6ZM8.8 5.6C8.8 5.38783 8.88428 5.18434 9.03431 5.03431C9.18434 4.88429 9.38783 4.8 9.6 4.8C9.81217 4.8 10.0157 4.88429 10.1657 5.03431C10.3157 5.18434 10.4 5.38783 10.4 5.6V8C10.4 8.21217 10.3157 8.41566 10.1657 8.56568C10.0157 8.71571 9.81217 8.8 9.6 8.8C9.38783 8.8 9.18434 8.71571 9.03431 8.56568C8.88428 8.41566 8.8 8.21217 8.8 8V5.6ZM27.2 11.2H4.8V8.4C4.80095 8.08203 4.92768 7.77736 5.15252 7.55252C5.37736 7.32768 5.68203 7.20095 6 7.2H8V8C8 8.42435 8.16857 8.83131 8.46863 9.13137C8.76869 9.43143 9.17565 9.6 9.6 9.6C10.0243 9.6 10.4313 9.43143 10.7314 9.13137C11.0314 8.83131 11.2 8.42435 11.2 8V7.2H14.4V8C14.4 8.42435 14.5686 8.83131 14.8686 9.13137C15.1687 9.43143 15.5757 9.6 16 9.6C16.4243 9.6 16.8313 9.43143 17.1314 9.13137C17.4314 8.83131 17.6 8.42435 17.6 8V7.2H20.8V8C20.8 8.42435 20.9686 8.83131 21.2686 9.13137C21.5687 9.43143 21.9757 9.6 22.4 9.6C22.8243 9.6 23.2313 9.43143 23.5314 9.13137C23.8314 8.83131 24 8.42435 24 8V7.2H26C26.318 7.20095 26.6226 7.32768 26.8475 7.55252C27.0723 7.77736 27.199 8.08203 27.2 8.4V11.2Z" fill="#194675"/>
<path d="M15.2001 14.8C15.2001 14.5878 15.1158 14.3843 14.9658 14.2343C14.8157 14.0843 14.6122 14 14.4001 14H12.8001C12.5879 14 12.3844 14.0843 12.2344 14.2343C12.0844 14.3843 12.0001 14.5878 12.0001 14.8V16C12.0001 16.2122 12.0844 16.4157 12.2344 16.5657C12.3844 16.7157 12.5879 16.8 12.8001 16.8H14.4001C14.6122 16.8 14.8157 16.7157 14.9658 16.5657C15.1158 16.4157 15.2001 16.2122 15.2001 16V14.8ZM12.8001 16V14.8H14.4001V16H12.8001ZM10.4001 14.8C10.4001 14.5878 10.3158 14.3843 10.1658 14.2343C10.0157 14.0843 9.81225 14 9.60007 14H8.00007C7.7879 14 7.58442 14.0843 7.43439 14.2343C7.28436 14.3843 7.20007 14.5878 7.20007 14.8V16C7.20007 16.2122 7.28436 16.4157 7.43439 16.5657C7.58442 16.7157 7.7879 16.8 8.00007 16.8H9.60007C9.81225 16.8 10.0157 16.7157 10.1658 16.5657C10.3158 16.4157 10.4001 16.2122 10.4001 16V14.8ZM8.00007 16V14.8H9.60007V16H8.00007ZM24.0001 16.8C24.2122 16.8 24.4157 16.7157 24.5658 16.5657C24.7158 16.4157 24.8001 16.2122 24.8001 16V14.8C24.8001 14.5878 24.7158 14.3843 24.5658 14.2343C24.4157 14.0843 24.2122 14 24.0001 14H22.4001C22.1879 14 21.9844 14.0843 21.8344 14.2343C21.6844 14.3843 21.6001 14.5878 21.6001 14.8V16C21.6001 16.2122 21.6844 16.4157 21.8344 16.5657C21.9844 16.7157 22.1879 16.8 22.4001 16.8H24.0001ZM22.4001 14.8H24.0001V16H22.4001V14.8ZM15.2001 18.4C15.2001 18.1878 15.1158 17.9843 14.9658 17.8343C14.8157 17.6843 14.6122 17.6 14.4001 17.6H12.8001C12.5879 17.6 12.3844 17.6843 12.2344 17.8343C12.0844 17.9843 12.0001 18.1878 12.0001 18.4V19.6C12.0001 19.8122 12.0844 20.0157 12.2344 20.1657C12.3844 20.3157 12.5879 20.4 12.8001 20.4H14.4001C14.6122 20.4 14.8157 20.3157 14.9658 20.1657C15.1158 20.0157 15.2001 19.8122 15.2001 19.6V18.4ZM12.8001 19.6V18.4H14.4001V19.6H12.8001ZM10.4001 18.4C10.4001 18.1878 10.3158 17.9843 10.1658 17.8343C10.0157 17.6843 9.81225 17.6 9.60007 17.6H8.00007C7.7879 17.6 7.58442 17.6843 7.43439 17.8343C7.28436 17.9843 7.20007 18.1878 7.20007 18.4V19.6C7.20007 19.8122 7.28436 20.0157 7.43439 20.1657C7.58442 20.3157 7.7879 20.4 8.00007 20.4H9.60007C9.81225 20.4 10.0157 20.3157 10.1658 20.1657C10.3158 20.0157 10.4001 19.8122 10.4001 19.6V18.4ZM8.00007 19.6V18.4H9.60007V19.6H8.00007ZM14.4001 21.2H12.8001C12.5879 21.2 12.3844 21.2843 12.2344 21.4343C12.0844 21.5843 12.0001 21.7878 12.0001 22V23.2C12.0001 23.4122 12.0844 23.6157 12.2344 23.7657C12.3844 23.9157 12.5879 24 12.8001 24H14.4001C14.6122 24 14.8157 23.9157 14.9658 23.7657C15.1158 23.6157 15.2001 23.4122 15.2001 23.2V22C15.2001 21.7878 15.1158 21.5843 14.9658 21.4343C14.8157 21.2843 14.6122 21.2 14.4001 21.2ZM12.8001 23.2V22H14.4001V23.2H12.8001ZM17.6001 16.8H19.2001C19.4122 16.8 19.6157 16.7157 19.7658 16.5657C19.9158 16.4157 20.0001 16.2122 20.0001 16V14.8C20.0001 14.5878 19.9158 14.3843 19.7658 14.2343C19.6157 14.0843 19.4122 14 19.2001 14H17.6001C17.3879 14 17.1844 14.0843 17.0344 14.2343C16.8844 14.3843 16.8001 14.5878 16.8001 14.8V16C16.8001 16.2122 16.8844 16.4157 17.0344 16.5657C17.1844 16.7157 17.3879 16.8 17.6001 16.8ZM17.6001 14.8H19.2001V16H17.6001V14.8ZM16.8001 19.6C16.8001 19.8122 16.8844 20.0157 17.0344 20.1657C17.1844 20.3157 17.3879 20.4 17.6001 20.4C17.7062 20.4 17.8079 20.3579 17.8829 20.2828C17.9579 20.2078 18.0001 20.1061 18.0001 20C18.0001 19.8939 17.9579 19.7922 17.8829 19.7172C17.8079 19.6421 17.7062 19.6 17.6001 19.6V18.4H19.2001C19.3062 18.4 19.4079 18.3579 19.4829 18.2828C19.5579 18.2078 19.6001 18.1061 19.6001 18C19.6001 17.8939 19.5579 17.7922 19.4829 17.7172C19.4079 17.6421 19.3062 17.6 19.2001 17.6H17.6001C17.3879 17.6 17.1844 17.6843 17.0344 17.8343C16.8844 17.9843 16.8001 18.1878 16.8001 18.4V19.6ZM9.60007 21.2H8.00007C7.7879 21.2 7.58442 21.2843 7.43439 21.4343C7.28436 21.5843 7.20007 21.7878 7.20007 22V23.2C7.20007 23.4122 7.28436 23.6157 7.43439 23.7657C7.58442 23.9157 7.7879 24 8.00007 24H9.60007C9.81225 24 10.0157 23.9157 10.1658 23.7657C10.3158 23.6157 10.4001 23.4122 10.4001 23.2V22C10.4001 21.7878 10.3158 21.5843 10.1658 21.4343C10.0157 21.2843 9.81225 21.2 9.60007 21.2ZM8.00007 23.2V22H9.60007V23.2H8.00007Z" fill="#194675"/>
<path d="M22.8 17.6C21.7715 17.6 20.7661 17.905 19.911 18.4764C19.0559 19.0477 18.3894 19.8599 17.9958 20.8101C17.6022 21.7602 17.4993 22.8058 17.6999 23.8145C17.9005 24.8232 18.3958 25.7497 19.123 26.477C19.8503 27.2042 20.7768 27.6994 21.7855 27.9001C22.7942 28.1007 23.8398 27.9978 24.7899 27.6042C25.7401 27.2106 26.5522 26.5441 27.1236 25.689C27.695 24.8338 28 23.8285 28 22.8C27.9984 21.4214 27.45 20.0996 26.4752 19.1248C25.5003 18.15 24.1786 17.6016 22.8 17.6ZM22.8 27.2C21.9297 27.2 21.079 26.9419 20.3555 26.4585C19.6319 25.975 19.0679 25.2878 18.7349 24.4838C18.4019 23.6798 18.3147 22.7951 18.4845 21.9416C18.6543 21.0881 19.0734 20.3041 19.6887 19.6887C20.3041 19.0734 21.0881 18.6543 21.9416 18.4846C22.7951 18.3148 23.6798 18.4019 24.4838 18.7349C25.2878 19.068 25.975 19.6319 26.4584 20.3555C26.9419 21.0791 27.2 21.9298 27.2 22.8C27.1986 23.9665 26.7346 25.0849 25.9097 25.9098C25.0849 26.7346 23.9665 27.1986 22.8 27.2Z" fill="#194675"/>
<path d="M25.1112 21.1232L22 24.2344L20.586 22.82C20.5105 22.7471 20.4095 22.7068 20.3046 22.7077C20.1997 22.7087 20.0994 22.7507 20.0252 22.8249C19.9511 22.899 19.909 22.9994 19.9081 23.1042C19.9072 23.2091 19.9475 23.3102 20.0204 23.3856L21.7172 25.0828C21.7922 25.1578 21.8939 25.1999 22 25.1999C22.106 25.1999 22.2078 25.1578 22.2828 25.0828L25.6768 21.6888C25.7496 21.6134 25.7899 21.5123 25.789 21.4075C25.7881 21.3026 25.7461 21.2022 25.6719 21.1281C25.5977 21.0539 25.4974 21.0119 25.3925 21.0109C25.2876 21.01 25.1866 21.0503 25.1112 21.1232Z" fill="#194675"/>
</svg>
