<svg width="32" height="32" viewBox="0 0 32 32" fill="none" xmlns="http://www.w3.org/2000/svg">
<path d="M26.3125 11.875H25.75V10.75C25.7494 10.1535 25.5121 9.58153 25.0903 9.15971C24.6685 8.73789 24.0965 8.50063 23.5 8.5H8.5C7.90346 8.50063 7.33153 8.73789 6.90971 9.15971C6.48789 9.58153 6.25063 10.1535 6.25 10.75V11.875H5.6875C5.33952 11.8754 5.00591 12.0138 4.75985 12.2598C4.51379 12.5059 4.37538 12.8395 4.375 13.1875V20.6875C4.37538 21.0355 4.51379 21.3691 4.75985 21.6152C5.00591 21.8612 5.33952 21.9996 5.6875 22H5.875V23.125C5.875 23.2245 5.91451 23.3198 5.98484 23.3902C6.05516 23.4605 6.15054 23.5 6.25 23.5H7.32812C7.40985 23.5 7.48933 23.4733 7.55449 23.424C7.61964 23.3746 7.6669 23.3054 7.68906 23.2267L8.03406 22H23.9659L24.3109 23.2267C24.3331 23.3054 24.3804 23.3746 24.4455 23.424C24.5107 23.4733 24.5902 23.5 24.6719 23.5H25.75C25.8495 23.5 25.9448 23.4605 26.0152 23.3902C26.0855 23.3198 26.125 23.2245 26.125 23.125V22H26.3125C26.6605 21.9996 26.9941 21.8612 27.2402 21.6152C27.4862 21.3691 27.6246 21.0355 27.625 20.6875V13.1875C27.6246 12.8395 27.4862 12.5059 27.2402 12.2598C26.9941 12.0138 26.6605 11.8754 26.3125 11.875ZM7 10.75C7.00045 10.3523 7.15863 9.97104 7.43983 9.68983C7.72104 9.40863 8.10231 9.25045 8.5 9.25H23.5C23.8977 9.25045 24.279 9.40863 24.5602 9.68983C24.8414 9.97104 24.9996 10.3523 25 10.75V11.875H24.4375C24.0895 11.8754 23.7559 12.0138 23.5098 12.2598C23.2638 12.5059 23.1254 12.8395 23.125 13.1875V15.0747C22.7132 14.7043 22.1788 14.4996 21.625 14.5H10.375C9.82116 14.4996 9.28679 14.7043 8.875 15.0747V13.1875C8.87462 12.8395 8.73621 12.5059 8.49015 12.2598C8.24409 12.0138 7.91048 11.8754 7.5625 11.875H7V10.75ZM23.125 16.75V17.5H8.875V16.75C8.87545 16.3523 9.03363 15.971 9.31483 15.6898C9.59604 15.4086 9.97731 15.2504 10.375 15.25H21.625C22.0227 15.2504 22.404 15.4086 22.6852 15.6898C22.9664 15.971 23.1246 16.3523 23.125 16.75ZM7.04406 22.75H6.625V22H7.255L7.04406 22.75ZM25.375 22.75H24.9559L24.745 22H25.375V22.75ZM26.875 20.6875C26.8749 20.8366 26.8156 20.9796 26.7101 21.0851C26.6046 21.1906 26.4616 21.2499 26.3125 21.25H5.6875C5.53835 21.2499 5.39535 21.1906 5.28989 21.0851C5.18443 20.9796 5.12512 20.8366 5.125 20.6875V13.1875C5.12512 13.0384 5.18443 12.8954 5.28989 12.7899C5.39535 12.6844 5.53835 12.6251 5.6875 12.625H7.5625C7.71165 12.6251 7.85465 12.6844 7.96011 12.7899C8.06557 12.8954 8.12488 13.0384 8.125 13.1875V17.875C8.125 17.9745 8.16451 18.0698 8.23484 18.1402C8.30516 18.2105 8.40054 18.25 8.5 18.25H23.5C23.5995 18.25 23.6948 18.2105 23.7652 18.1402C23.8355 18.0698 23.875 17.9745 23.875 17.875V13.1875C23.8751 13.0384 23.9344 12.8954 24.0399 12.7899C24.1454 12.6844 24.2884 12.6251 24.4375 12.625H26.3125C26.4616 12.6251 26.6046 12.6844 26.7101 12.7899C26.8156 12.8954 26.8749 13.0384 26.875 13.1875V20.6875Z" fill="#194675"/>
</svg>
