<svg xmlns="http://www.w3.org/2000/svg" width="24" height="24" viewBox="0 0 24 24">
  <g id="Group_21499" data-name="Group 21499" transform="translate(1329 1054)">
    <rect id="Rectangle_1" data-name="Rectangle 1" width="24" height="24" transform="translate(-1329 -1054)" fill="#fff" opacity="0"/>
    <g id="Category" transform="translate(-1328.279 -1053.313)">
      <path id="Fill_1" data-name="Fill 1" d="M2.8,0H6.537a2.812,2.812,0,0,1,2.8,2.825V6.592a2.812,2.812,0,0,1-2.8,2.825H2.8A2.812,2.812,0,0,1,0,6.592V2.825A2.812,2.812,0,0,1,2.8,0" transform="translate(12.802 0)" fill="#b3b9c4"/>
      <path id="Combined_Shape" data-name="Combined Shape" d="M15.69,22.295a2.841,2.841,0,0,1-2.829-2.853V15.635a2.842,2.842,0,0,1,2.829-2.854h3.775a2.842,2.842,0,0,1,2.829,2.854v3.806a2.841,2.841,0,0,1-2.829,2.853Zm-12.86,0A2.842,2.842,0,0,1,0,19.441V15.635a2.842,2.842,0,0,1,2.83-2.854H6.6a2.842,2.842,0,0,1,2.829,2.854v3.806A2.841,2.841,0,0,1,6.6,22.295Zm0-12.781A2.842,2.842,0,0,1,0,6.66V2.853A2.842,2.842,0,0,1,2.83,0H6.6A2.841,2.841,0,0,1,9.434,2.853V6.66A2.841,2.841,0,0,1,6.6,9.514Z" transform="translate(0.132 0.333)" fill="#b3b9c4"/>
    </g>
  </g>
</svg>
